<svg width="20" height="20" viewBox="0 0 20 20" fill="none" xmlns="http://www.w3.org/2000/svg">
<path fill-rule="evenodd" clip-rule="evenodd" d="M0 10C0 4.47656 4.47656 0 10 0C15.5234 0 20 4.47656 20 10C20 15.5234 15.5234 20 10 20C4.47656 20 0 15.5234 0 10ZM9.52344 13.2734L14.5234 8.27344C14.9492 7.84766 14.9492 7.15234 14.5246 6.72656C14.0973 6.29922 13.4039 6.29922 12.9766 6.72656L8.75 10.9531L7.02422 9.22586C6.59687 8.79852 5.90352 8.79852 5.47617 9.22586C5.05 9.6532 5.05 10.3466 5.47617 10.7739L7.97617 13.2739C8.18984 13.4875 8.46875 13.5938 8.75 13.5938C9.03125 13.5938 9.30859 13.4883 9.52344 13.2734Z" fill="#03C108"/>
</svg>
