<svg width="32" height="32" viewBox="0 0 32 32" fill="none" xmlns="http://www.w3.org/2000/svg">
<path d="M0 16C0 7.16344 7.16344 0 16 0C24.8366 0 32 7.16344 32 16C32 24.8366 24.8366 32 16 32C7.16344 32 0 24.8366 0 16Z" fill="#F0F2F4"/>
<path d="M21.8633 20.1172C22.3516 20.6055 22.3516 21.3965 21.8633 21.8848C21.6211 22.1289 21.3008 22.25 20.9805 22.25C20.6602 22.25 20.3406 22.1279 20.0969 21.8838L15.9805 17.7695L11.8645 21.8828C11.6203 22.1289 11.3004 22.25 10.9805 22.25C10.6605 22.25 10.341 22.1289 10.0967 21.8828C9.6084 21.3945 9.6084 20.6035 10.0967 20.1152L14.2139 15.998L10.0967 11.8828C9.6084 11.3945 9.6084 10.6035 10.0967 10.1152C10.585 9.62695 11.376 9.62695 11.8643 10.1152L15.9805 14.2344L20.0977 10.1172C20.5859 9.62891 21.377 9.62891 21.8652 10.1172C22.3535 10.6055 22.3535 11.3965 21.8652 11.8848L17.748 16.002L21.8633 20.1172Z" fill="#191414"/>
</svg>
