<svg width="16" height="16" viewBox="0 0 16 16" fill="none" xmlns="http://www.w3.org/2000/svg">
<path d="M15.1297 13.5781C15.5688 14.0173 15.5688 14.7298 15.1297 15.1691C14.6905 15.6083 13.978 15.6082 13.5387 15.1691L7.99999 9.58906L2.42186 15.1672C1.98269 15.6064 1.27014 15.6064 0.830926 15.1672C0.391707 14.728 0.391754 14.0155 0.830926 13.5762L6.41093 8L0.829379 2.37968C0.390207 1.94051 0.390207 1.22797 0.829379 0.788747C1.26855 0.349528 1.9811 0.349575 2.42032 0.788747L7.99999 6.41093L13.5781 0.83281C14.0173 0.393638 14.7298 0.393638 15.1691 0.83281C15.6083 1.27198 15.6082 1.98453 15.1691 2.42375L9.58905 8L15.1297 13.5781Z" fill="#90979E"/>
</svg>
