<svg width="16" height="16" viewBox="0 0 16 16" fill="none" xmlns="http://www.w3.org/2000/svg">
<path d="M0 8C0 3.58172 3.58172 0 8 0C12.4183 0 16 3.58172 16 8C16 12.4183 12.4183 16 8 16C3.58172 16 0 12.4183 0 8Z" fill="#F03738"/>
<path d="M10.9316 10.0586C11.1758 10.3027 11.1758 10.6982 10.9316 10.9424C10.8105 11.0645 10.6504 11.125 10.4902 11.125C10.3301 11.125 10.1703 11.064 10.0484 10.9419L7.99023 8.88477L5.93223 10.9414C5.81016 11.0645 5.6502 11.125 5.49023 11.125C5.33027 11.125 5.17051 11.0645 5.04834 10.9414C4.8042 10.6973 4.8042 10.3018 5.04834 10.0576L7.10693 7.99902L5.04834 5.94141C4.8042 5.69727 4.8042 5.30176 5.04834 5.05762C5.29248 4.81348 5.68799 4.81348 5.93213 5.05762L7.99023 7.11719L10.0488 5.05859C10.293 4.81445 10.6885 4.81445 10.9326 5.05859C11.1768 5.30273 11.1768 5.69824 10.9326 5.94238L8.87402 8.00098L10.9316 10.0586Z" fill="white"/>
</svg>
