<svg width="16" height="16" viewBox="0 0 16 16" fill="none" xmlns="http://www.w3.org/2000/svg">
<path d="M15.0359 12.9406C15.6219 13.5266 15.6219 14.4758 15.0359 15.0617C14.7453 15.3547 14.3609 15.5 13.9766 15.5C13.5922 15.5 13.2087 15.3535 12.9163 15.0606L7.97656 10.1234L3.03734 15.0594C2.74437 15.3547 2.36047 15.5 1.97656 15.5C1.59266 15.5 1.20922 15.3547 0.916016 15.0594C0.330078 14.4734 0.330078 13.5242 0.916016 12.9383L5.85664 7.99767L0.916016 3.05939C0.330078 2.47345 0.330078 1.52423 0.916016 0.938293C1.50195 0.352356 2.45117 0.352356 3.03711 0.938293L7.97656 5.88126L12.9172 0.940637C13.5031 0.3547 14.4523 0.3547 15.0383 0.940637C15.6242 1.52657 15.6242 2.47579 15.0383 3.06173L10.0977 8.00236L15.0359 12.9406Z" fill="#191414"/>
</svg>
