<svg width="24" height="24" viewBox="0 0 24 24" fill="none" xmlns="http://www.w3.org/2000/svg">
<path d="M0 12C0 5.37258 5.37258 0 12 0C18.6274 0 24 5.37258 24 12C24 18.6274 18.6274 24 12 24C5.37258 24 0 18.6274 0 12Z" fill="#F03738"/>
<path fill-rule="evenodd" clip-rule="evenodd" d="M9.75 12C11.407 12 12.75 10.6568 12.75 9C12.75 7.3432 11.407 6 9.75 6C8.09297 6 6.75 7.3432 6.75 9C6.75 10.6568 8.09297 12 9.75 12ZM10.9383 13.125H8.56172C6.31898 13.125 4.5 14.9438 4.5 17.1867C4.5 17.6367 4.86375 18 5.31234 18H14.1881C14.6367 18 15 17.6367 15 17.1867C15 14.9438 13.1813 13.125 10.9383 13.125ZM19.1468 10.1266L18.0445 11.2289L19.1477 12.3513C19.3675 12.5712 19.3675 12.9271 19.1477 13.1468C18.9279 13.3667 18.5719 13.3665 18.3523 13.1468L17.25 12.0445L16.1477 13.1487C15.9279 13.3685 15.5719 13.3684 15.3523 13.1487C15.1325 12.9288 15.1325 12.5729 15.3523 12.3532L16.4545 11.2509L15.3523 10.1487C15.1325 9.92883 15.1324 9.57293 15.3523 9.3532C15.5721 9.13348 15.928 9.13348 16.1477 9.3532L17.25 10.4555L18.3513 9.33117C18.5712 9.11145 18.9271 9.11133 19.1468 9.33117C19.3665 9.55102 19.3665 9.90691 19.1468 10.1266Z" fill="white"/>
</svg>
