<svg width="20" height="20" viewBox="0 0 20 20" fill="none" xmlns="http://www.w3.org/2000/svg">
<path fill-rule="evenodd" clip-rule="evenodd" d="M14.457 13.1641L19.6914 18.3984C20.0899 18.7656 20.0899 19.3594 19.7254 19.7254C19.5422 19.9084 19.3008 20 19.0625 20C18.8242 20 18.582 19.9102 18.3633 19.725L13.1289 14.4906C11.7441 15.5895 9.99571 16.25 8.08985 16.25C3.63751 16.25 0 12.6121 0 8.125C0 3.63789 3.60274 0 8.08985 0C12.577 0 16.2149 3.63672 16.2149 8.125C16.2149 10.0312 15.5899 11.7773 14.457 13.1641ZM8.12501 1.875C4.67892 1.875 1.87501 4.67891 1.87501 8.125C1.87501 11.5703 4.67892 14.375 8.12501 14.375C11.5711 14.375 14.375 11.5711 14.375 8.125C14.375 4.67891 11.5711 1.875 8.12501 1.875Z" fill="#60646A"/>
</svg>
